<svg xmlns="http://www.w3.org/2000/svg"  viewBox="0 0 1601 349" version="1.1">
    <path d="M 1344.728 1.327 C 1339.535 2.942, 1334.399 7.298, 1331.892 12.212 C 1330.236 15.458, 1329.873 17.658, 1330.184 22.551 C 1330.729 31.101, 1334.201 36.287, 1341.670 39.707 C 1359.029 47.654, 1376.368 31.345, 1369.547 13.485 C 1367.427 7.934, 1361.349 2.577, 1355.499 1.104 C 1350.286 -0.209, 1349.620 -0.195, 1344.728 1.327 M 742 86.076 C 742 140.135, 742.203 149.214, 743.387 147.964 C 744.150 147.159, 761.051 124.302, 780.944 97.171 C 808.841 59.125, 816.863 47.540, 816.019 46.523 C 814.154 44.275, 792.979 34.251, 783.259 31.014 C 772.746 27.514, 758.661 24.408, 748.750 23.406 L 742 22.724 742 86.076 M 82.500 83.659 C 50.971 90.399, 23.658 112.102, 9.996 141.273 C -2.534 168.024, -2.907 198.429, 8.955 226.095 C 21.964 256.434, 50.318 279.486, 82.881 286.195 C 95.852 288.868, 124.650 288.369, 135.500 285.283 C 150.282 281.080, 165.853 272.934, 172.699 265.823 C 183.056 255.066, 180.068 239.559, 166.300 232.614 C 160.260 229.568, 155.294 230.455, 142.864 236.802 C 128.478 244.147, 119.293 246.453, 104.500 246.433 C 91.871 246.416, 85.357 244.837, 74.500 239.161 C 63.380 233.348, 49.523 218.036, 46.561 208.287 L 45.889 206.074 118.694 205.787 L 191.500 205.500 195.624 203.294 C 204.951 198.305, 207.532 192.191, 206.697 177.061 C 204.138 130.639, 171.764 93.492, 125.500 83.894 C 114.324 81.575, 92.801 81.458, 82.500 83.659 M 243.500 83.896 C 238.598 86.165, 234.612 90.288, 232.553 95.218 C 230.269 100.686, 230.240 206.383, 232.520 219.452 C 235.658 237.446, 244.045 253.089, 257.313 265.693 C 298.512 304.828, 365.457 292.360, 389.903 241 C 397.701 224.614, 397.396 227.804, 397.760 158.987 L 398.085 97.475 395.716 92.987 C 394.413 90.519, 391.430 87.150, 389.087 85.500 C 385.292 82.827, 384.029 82.500, 377.500 82.500 C 370.966 82.500, 369.708 82.826, 365.884 85.514 C 363.526 87.171, 360.674 90.096, 359.548 92.014 C 357.563 95.393, 357.484 97.319, 356.994 154.500 C 356.497 212.600, 356.455 213.583, 354.265 218.950 C 348.869 232.170, 339.240 241.351, 326.812 245.126 C 307.030 251.134, 286.582 242.070, 277.226 223.145 L 273.500 215.609 273 156.054 C 272.555 103.027, 272.318 96.171, 270.839 93.500 C 265.349 83.581, 253.312 79.353, 243.500 83.896 M 511 82.666 C 487.168 86.420, 469.033 95.186, 452.829 110.785 C 438.772 124.318, 430.189 138.379, 424.314 157.500 L 421.549 166.500 421.208 219 C 420.979 254.303, 421.218 272.687, 421.937 275.125 C 423.922 281.859, 433.983 288.989, 441.500 288.989 C 448.771 288.989, 456.956 283.507, 460.135 276.509 C 461.810 272.821, 461.958 268.838, 461.978 226.708 C 462.003 175.564, 462.428 171.135, 468.523 158.500 C 478.766 137.267, 497.057 125.754, 524.257 123.419 C 535.817 122.427, 543.533 115.324, 544.746 104.558 C 545.685 96.232, 540.525 87.507, 532.509 83.865 C 528.685 82.128, 518.146 81.541, 511 82.666 M 1019 83.118 C 993.096 86.081, 966.926 100.485, 950.937 120.579 C 923.036 155.642, 920.133 205.528, 943.893 241.594 C 964.408 272.734, 999.406 289.780, 1038.500 287.674 C 1057.088 286.673, 1073.622 281.379, 1086.252 272.384 C 1088.866 270.523, 1091.167 269, 1091.366 269 C 1091.565 269, 1092.488 270.989, 1093.417 273.421 C 1095.499 278.875, 1102.437 285.451, 1107.803 287.059 C 1116.775 289.747, 1127.382 284.913, 1131.136 276.425 C 1133.020 272.167, 1133.086 269.878, 1132.765 219.744 C 1132.444 169.501, 1132.347 167.194, 1130.224 159.500 C 1125.124 141.012, 1117.210 126.573, 1105.265 113.964 C 1088.012 95.751, 1068.177 85.817, 1043.500 83.032 C 1033.331 81.884, 1029.666 81.897, 1019 83.118 M 1153.885 83.380 C 1148.193 85.414, 1144.345 88.656, 1142.086 93.323 C 1137.719 102.344, 1137.086 100.226, 1171.918 193.108 C 1196.556 258.809, 1204.481 278.899, 1206.668 281.201 C 1215.861 290.880, 1230.971 290.320, 1239.050 280 C 1240.852 277.698, 1252.606 247.612, 1273.395 192.092 C 1306.868 102.694, 1306.929 102.499, 1303.640 94.718 C 1300.801 88, 1294.067 83.269, 1285.982 82.312 C 1281.931 81.832, 1280.108 82.202, 1275.560 84.427 C 1272.529 85.910, 1269.094 88.463, 1267.928 90.101 C 1266.762 91.739, 1256.240 118.722, 1244.545 150.064 C 1232.851 181.406, 1223.073 207.260, 1222.816 207.518 C 1222.559 207.775, 1212.543 181.921, 1200.559 150.064 C 1177.104 87.717, 1177.156 87.825, 1168.500 83.871 C 1163.825 81.736, 1158.944 81.572, 1153.885 83.380 M 1343.030 83.059 C 1338.566 84.937, 1334.016 89.049, 1331.975 93.049 C 1330.004 96.912, 1329.973 98.587, 1330.234 186.327 L 1330.500 275.672 1333.264 279.659 C 1340.297 289.808, 1354.564 291.711, 1363.670 283.716 C 1371.409 276.922, 1370.953 283.080, 1370.978 184.907 L 1371 97.315 1368.673 92.907 C 1365.170 86.271, 1359.395 82.658, 1351.729 82.306 C 1348.303 82.149, 1344.388 82.488, 1343.030 83.059 M 1486.847 83.039 C 1470.416 84.957, 1453.493 91.392, 1439.576 101.013 C 1430.953 106.974, 1418.208 119.894, 1412.651 128.308 C 1389.855 162.828, 1389.406 207.769, 1411.513 242.176 C 1417.889 252.099, 1432.584 266.282, 1442.820 272.392 C 1460.763 283.102, 1477.298 287.458, 1500 287.457 C 1522.260 287.455, 1536.642 283.604, 1551.920 273.553 C 1558.712 269.084, 1560 268.543, 1560 270.158 C 1560 275.490, 1566.911 283.799, 1573.718 286.652 C 1583.631 290.806, 1596.960 284.007, 1599.940 273.277 C 1601.318 268.315, 1601.350 184.241, 1599.978 173.298 C 1597.792 155.860, 1591.502 138.997, 1581.919 124.877 C 1561.713 95.106, 1524.346 78.662, 1486.847 83.039 M 91.500 124.480 C 77.892 127.476, 67.740 133.243, 58.313 143.332 C 53.023 148.994, 46 160.149, 46 162.890 C 46 163.691, 62.167 164, 104 164 C 145.738 164, 162 163.690, 162 162.893 C 162 162.284, 160.579 158.797, 158.842 155.143 C 154.179 145.334, 143.724 135.214, 132.878 130.013 C 119.399 123.549, 104.673 121.580, 91.500 124.480 M 1016.547 125.538 C 999.110 130.321, 983.272 143.467, 975.407 159.685 C 964.208 182.778, 968.012 208.316, 985.393 226.738 C 992.920 234.717, 1001.473 240.060, 1012.500 243.672 C 1022.750 247.030, 1039.055 247.461, 1048.500 244.623 C 1074.147 236.918, 1090.444 216.297, 1091.772 189.873 C 1093.226 160.927, 1075.882 134.793, 1049.698 126.478 C 1043.380 124.471, 1039.958 124.017, 1031.698 124.089 C 1026.089 124.139, 1019.271 124.790, 1016.547 125.538 M 1484 125.570 C 1467.109 129.986, 1450.908 143.295, 1443.305 159 C 1438.089 169.774, 1436.591 176.222, 1436.683 187.500 C 1436.881 211.768, 1452.573 233.536, 1476.303 242.460 C 1484.757 245.639, 1496.895 247.350, 1504.936 246.496 C 1537.026 243.085, 1559.306 218.500, 1559.306 186.500 C 1559.306 157.660, 1540.643 132.404, 1514.284 125.574 C 1506.749 123.621, 1491.460 123.619, 1484 125.570"
          stroke="none" fill="#ffffff" fill-rule="evenodd"/>
    <path d="M 700.627 24.075 C 694.647 25.128, 684.478 27.753, 678.028 29.910 C 667.255 33.512, 649.185 41.813, 644.586 45.273 C 642.771 46.638, 643.773 48.225, 663.896 75.857 C 675.569 91.885, 685.480 105, 685.921 105 C 686.362 105, 689.598 103.698, 693.112 102.107 C 696.625 100.516, 703.663 98.195, 708.750 96.950 L 718 94.685 718 58.342 L 718 22 714.750 22.081 C 712.962 22.125, 706.607 23.023, 700.627 24.075 M 613.343 70.250 C 599.074 84.822, 589.455 98.411, 581.394 115.386 C 579.286 119.825, 578.100 123.479, 578.610 123.962 C 579.100 124.425, 594.657 129.734, 613.182 135.761 L 646.863 146.718 651.902 138.472 C 654.674 133.936, 659.239 127.712, 662.046 124.640 C 665.284 121.097, 666.878 118.587, 666.403 117.777 C 664.289 114.169, 624.538 60, 624.004 60 C 623.661 60, 618.863 64.612, 613.343 70.250 M 814 88.171 C 802.725 103.663, 793.130 116.955, 792.678 117.708 C 792.111 118.654, 793.600 120.961, 797.482 125.153 C 800.575 128.495, 805.134 134.718, 807.612 138.983 L 812.118 146.738 840.809 137.358 C 856.589 132.199, 872.087 127.195, 875.249 126.239 C 878.410 125.282, 880.998 123.929, 880.999 123.232 C 881.001 120.851, 871.202 102.433, 865.157 93.458 C 858.483 83.548, 848.247 71.636, 840.353 64.592 C 837.522 62.067, 835.047 60.001, 834.853 60.002 C 834.659 60.003, 825.275 72.679, 814 88.171 M 568.342 155.750 C 566.939 163.177, 566.500 170.265, 566.500 185.500 C 566.500 200.735, 566.939 207.823, 568.342 215.250 C 569.356 220.613, 570.447 225, 570.766 225 C 571.086 225, 586.682 220.003, 605.424 213.895 L 639.500 202.790 639.500 185.350 L 639.500 167.909 605.906 156.955 C 587.429 150.930, 571.833 146, 571.248 146 C 570.663 146, 569.356 150.387, 568.342 155.750 M 852.248 157.163 L 818.995 168.119 819.701 172.309 C 820.640 177.890, 820.656 191.277, 819.731 197.543 L 818.986 202.586 853.595 213.858 C 872.630 220.057, 888.424 224.909, 888.694 224.639 C 888.964 224.369, 890.054 219.053, 891.118 212.824 C 893.307 199.996, 893.764 174.702, 892.011 163.324 C 889.818 149.095, 888.948 145.994, 887.179 146.103 C 886.256 146.160, 870.536 151.137, 852.248 157.163 M 612 235.214 C 593.575 241.271, 578.318 246.396, 578.095 246.602 C 577.224 247.408, 583.472 260.357, 589.332 269.890 C 592.724 275.408, 598.340 283.507, 601.812 287.888 C 609.407 297.473, 623.897 311.543, 624.947 310.353 C 625.361 309.884, 634.618 297.125, 645.519 282 C 656.420 266.875, 665.742 253.969, 666.234 253.319 C 666.834 252.528, 665.094 249.722, 660.963 244.819 C 657.572 240.794, 653.155 234.470, 651.148 230.767 C 649.142 227.064, 647.050 224.072, 646.500 224.118 C 645.950 224.164, 630.425 229.157, 612 235.214 M 807.262 232.211 C 804.460 236.770, 799.853 243.077, 797.025 246.226 L 791.882 251.953 813.084 281.226 C 824.746 297.327, 834.435 310.675, 834.616 310.889 C 835.187 311.565, 850.948 295.774, 856.462 289 C 859.372 285.425, 863.860 279.350, 866.436 275.500 C 871.374 268.118, 881 249.674, 881 247.594 C 881 246.868, 867.436 241.954, 847.750 235.548 C 829.462 229.596, 814.018 224.546, 813.428 224.325 C 812.839 224.104, 810.064 227.653, 807.262 232.211 M 670.500 285.731 C 639.770 328.110, 642.502 323.910, 644.619 325.504 C 648.623 328.516, 666.980 337.022, 676.772 340.402 C 686.068 343.611, 700.598 346.836, 713.250 348.498 L 718 349.123 718 312.190 L 718 275.258 713.101 274.608 C 707.185 273.823, 697.469 270.714, 690.642 267.420 C 687.883 266.089, 685.597 265.010, 685.563 265.022 C 685.528 265.035, 678.750 274.353, 670.500 285.731 M 766 268.633 C 761.875 270.450, 755.125 272.681, 751 273.589 C 746.875 274.498, 742.938 275.398, 742.250 275.589 C 741.279 275.860, 741 284.096, 741 312.469 C 741 332.561, 741.337 348.992, 741.750 348.982 C 746.193 348.873, 765.480 345.438, 772.719 343.466 C 789.784 338.817, 815.633 326.883, 815.392 323.765 C 815.302 322.607, 776.201 267.757, 774.151 265.914 C 773.793 265.592, 770.125 266.815, 766 268.633"
          stroke="none" fill="#fc5404" fill-rule="evenodd"/>
</svg>